<!DOCTYPE svg PUBLIC "-//W3C//DTD SVG 1.1//EN" "http://www.w3.org/Graphics/SVG/1.1/DTD/svg11.dtd">

<!-- Uploaded to: SVG Repo, www.svgrepo.com, Transformed by: SVG Repo Mixer Tools -->
<svg version="1.1" id="Layer_1" xmlns="http://www.w3.org/2000/svg" xmlns:xlink="http://www.w3.org/1999/xlink" viewBox="0 0 512 512" xml:space="preserve" width="800px" height="800px" fill="#000000">

<g id="SVGRepo_bgCarrier" stroke-width="0"/>

<g id="SVGRepo_tracerCarrier" stroke-linecap="round" stroke-linejoin="round"/>

<g id="SVGRepo_iconCarrier"> <path style="fill:#011638;" d="M157.88,275.366c66.157-66.157,115.056,0,115.056,0C206.779,341.523,157.88,275.366,157.88,275.366z"/> <path style="fill:#f2f2f2;" d="M272.936,275.366c0,0-48.899-66.157-115.056,0C157.88,275.366,206.779,341.523,272.936,275.366z M497.641,189.419l5.062-0.345c0.46,5.753,0.69,11.621,0.69,17.604c0,136.572-110.799,247.371-247.371,247.371 S8.652,343.249,8.652,206.677c0-13.922,1.151-27.498,3.337-40.615l2.416,0.345c26.808,0,26.808,23.011,53.616,23.011 c26.923,0,26.923-23.011,53.731-23.011s26.808,23.011,53.616,23.011c26.923,0,26.923-23.011,53.731-23.011 s26.808,23.011,53.616,23.011c26.923,0,26.923-23.011,53.731-23.011c26.808,0,26.808,23.011,53.731,23.011 c26.808,0,26.808-23.011,53.731-23.011C470.718,166.407,470.718,189.419,497.641,189.419z"/> <path style="fill:#f2f2f2;" d="M452.769,57.104c28.304,37.163,46.483,82.495,49.934,131.969l-5.062,0.345 c-26.923,0-26.923-23.011-53.731-23.011c-26.923,0-26.923,23.011-53.731,23.011c-26.923,0-26.923-23.011-53.731-23.011 c-26.808,0-26.808,23.011-53.731,23.011c-26.808,0-26.808-23.011-53.616-23.011s-26.808,23.011-53.731,23.011 c-26.808,0-26.808-23.011-53.616-23.011s-26.808,23.011-53.731,23.011c-26.808,0-26.808-23.011-53.616-23.011l-2.416-0.345 c6.788-40.5,23.471-77.663,47.288-108.958C59.277,57.104,452.769,57.104,452.769,57.104z"/> <path style="fill:#e8e8e8;" d="M78.11,188.005c-2.942,0.832-6.175,1.414-10.09,1.414c-26.807,0-26.807-23.011-53.616-23.011 l-2.416-0.345c-2.186,13.116-3.337,26.693-3.337,40.615c0,136.572,110.799,247.371,247.371,247.371 c43,0,83.423-11.019,118.66-30.332C241.585,398.386,131.546,308.62,78.11,188.005z"/> <path d="M511.289,188.898c-3.454-49.509-21.323-96.744-51.677-136.598l-2.59-3.401H342.292v17.258h106.132 c24.914,33.923,40.29,73.326,44.82,114.771c-7.369-0.986-11.527-4.525-16.942-9.163c-7.055-6.043-15.835-13.563-32.416-13.563 c-16.666,0-25.47,7.541-32.543,13.6c-6.38,5.464-10.989,9.412-21.188,9.412c-10.285,0-14.914-3.964-21.316-9.448 c-7.055-6.042-15.835-13.563-32.415-13.563c-16.58,0-25.36,7.52-32.415,13.563c-6.403,5.486-11.032,9.448-21.316,9.448 c-10.208,0-14.814-3.953-21.188-9.424c-7.052-6.053-15.828-13.587-32.429-13.587c-16.581,0-25.361,7.52-32.416,13.563 c-6.403,5.486-11.03,9.448-21.315,9.448c-10.208,0-14.813-3.953-21.188-9.424c-7.052-6.053-15.829-13.587-32.43-13.587 c-16.58,0-25.36,7.52-32.415,13.563c-6.403,5.486-11.03,9.448-21.315,9.448c-10.209,0-14.815-3.953-21.189-9.424 c-5.848-5.021-12.9-11.045-24.601-12.96c6.938-33.242,21.106-65.039,41.371-92.672h249.953V48.898H54.977l-2.591,3.403 C27.19,85.411,10.27,124.403,3.455,165.068C1.162,178.819,0,192.96,0,207.102c0,141.159,114.841,256,256,256s256-114.841,256-256 C512,200.923,511.758,194.77,511.289,188.898z M256,445.843c-131.643,0-238.742-107.099-238.742-238.742 c0-10.493,0.696-20.979,2.051-31.277c6.959,1.088,11.014,4.557,16.26,9.061c7.052,6.053,15.829,13.587,32.43,13.587 c16.666,0,25.47-7.541,32.542-13.6c6.38-5.464,10.989-9.412,21.188-9.412c10.209,0,14.815,3.953,21.189,9.424 c7.052,6.053,15.829,13.587,32.429,13.587c16.666,0,25.47-7.541,32.542-13.6c6.38-5.464,10.989-9.412,21.189-9.412 c10.208,0,14.813,3.953,21.188,9.424c7.052,6.053,15.828,13.587,32.429,13.587c16.666,0,25.471-7.541,32.544-13.6 c6.38-5.464,10.989-9.412,21.188-9.412c10.199,0,14.808,3.948,21.188,9.412c7.073,6.059,15.878,13.6,32.544,13.6 c16.58,0,25.36-7.52,32.415-13.563c6.403-5.486,11.03-9.448,21.315-9.448c10.2,0,14.809,3.948,21.189,9.412 c6.628,5.678,14.777,12.656,29.491,13.512c0.115,2.884,0.175,5.797,0.175,8.717C494.742,338.744,387.643,445.843,256,445.843z"/> <rect x="66.157" y="117.933" width="34.517" height="17.258"/> <rect x="100.674" y="94.922" width="34.517" height="17.258"/> <path d="M105.341,301.374c-23.444-34.947-30.683-67.032-30.753-67.352l-16.863,3.676c0.308,1.415,7.826,35.106,32.893,72.706 c23.201,34.803,66.43,79.533,140.611,94.987l3.52-16.896C180.01,377.093,136.47,347.781,105.341,301.374z"/> <rect x="256" y="388.315" style="fill:#FFFFFF;" width="34.517" height="17.258"/> <rect x="359.551" y="290.517" width="34.517" height="17.258"/> <rect x="394.067" y="256.001" style="fill:#FFFFFF;" width="34.517" height="17.258"/> <path d="M324.991,236.606l-12.11-12.296l-39.546,38.953c-9.001-9.093-26.887-23.505-51.2-25.318 c-23.85-1.783-47.537,8.9-70.38,31.743l-5.253,5.255l0,0l0,0l4.417,5.976c0.908,1.228,22.628,30.099,57.718,32.715 c1.704,0.128,3.409,0.191,5.112,0.191c19.95,0,39.739-8.748,58.987-26.011l40.443,40.443l12.204-12.203l-40.22-40.22 L324.991,236.606z M220.705,255.146c18.694,1.34,33.03,12.953,40.199,20.126c-17.107,15.241-34.169,22.358-50.84,21.162 c-18.689-1.339-33.023-12.947-40.198-20.127C186.973,261.066,204.039,253.948,220.705,255.146z"/> </g>

</svg>